<?xml version="1.0" encoding="utf-8" standalone="no"?>
<!DOCTYPE svg PUBLIC "-//W3C//DTD SVG 1.1//EN"
  "http://www.w3.org/Graphics/SVG/1.1/DTD/svg11.dtd">
<svg xmlns:xlink="http://www.w3.org/1999/xlink" width="371.52pt" height="280.512pt" viewBox="0 0 371.52 280.512" xmlns="http://www.w3.org/2000/svg" version="1.1">
 <metadata>
  <rdf:RDF xmlns:dc="http://purl.org/dc/elements/1.1/" xmlns:cc="http://creativecommons.org/ns#" xmlns:rdf="http://www.w3.org/1999/02/22-rdf-syntax-ns#">
   <cc:Work>
    <dc:type rdf:resource="http://purl.org/dc/dcmitype/StillImage"/>
    <dc:date>2024-01-31T15:26:26.781511</dc:date>
    <dc:format>image/svg+xml</dc:format>
    <dc:creator>
     <cc:Agent>
      <dc:title>Matplotlib v3.8.2, https://matplotlib.org/</dc:title>
     </cc:Agent>
    </dc:creator>
   </cc:Work>
  </rdf:RDF>
 </metadata>
 <defs>
  <style type="text/css">*{stroke-linejoin: round; stroke-linecap: butt}</style>
 </defs>
 <g id="figure_1">
  <g id="patch_1">
   <path d="M 0 280.512 
L 371.52 280.512 
L 371.52 0 
L 0 0 
z
" style="fill: #ffffff"/>
  </g>
  <g id="axes_1">
   <g id="patch_2">
    <path d="M 7.2 273.312 
L 364.32 273.312 
L 364.32 7.2 
L 7.2 7.2 
z
" style="fill: #ffffff"/>
   </g>
   <g id="matplotlib.axis_1"/>
   <g id="matplotlib.axis_2"/>
   <g id="line2d_1">
    <path d="M 23.432727 159.807829 
L 24.155789 180.394482 
L 24.87885 189.653018 
L 25.601911 184.969235 
L 26.324973 186.494197 
L 27.771095 180.176621 
L 28.494157 177.453456 
L 29.217218 189.43509 
L 29.940279 203.486306 
L 30.663341 205.664785 
L 31.386402 209.694985 
L 32.109463 208.605745 
L 32.832525 212.962703 
L 33.555586 215.903663 
L 34.278647 214.596563 
L 35.001709 208.170023 
L 35.72477 208.714709 
L 36.447832 207.407609 
L 37.170893 203.050651 
L 37.893954 202.832789 
L 38.617016 206.645061 
L 39.340077 204.68451 
L 40.063138 202.179272 
L 40.7862 203.922029 
L 41.509261 205.22913 
L 42.232322 206.971886 
L 42.955384 211.7645 
L 43.678445 213.289462 
L 44.401506 218.844557 
L 45.124568 220.914138 
L 45.847629 217.755317 
L 46.57069 217.537523 
L 47.293752 222.874823 
L 48.016813 221.785517 
L 48.739874 224.290821 
L 49.462936 224.835441 
L 50.185997 229.95488 
L 50.909059 230.390535 
L 51.63212 229.083435 
L 52.355181 225.271096 
L 53.078243 229.301296 
L 53.801304 231.044053 
L 54.524365 231.697636 
L 55.247427 235.727769 
L 55.970488 236.599214 
L 56.693549 233.658254 
L 57.416611 236.381353 
L 58.139672 235.945697 
L 58.862733 238.777693 
L 59.585795 240.629347 
L 60.308856 237.361628 
L 62.47804 237.470592 
L 63.924163 247.055886 
L 64.647224 247.273748 
L 65.370285 244.332788 
L 66.093347 247.055886 
L 66.816408 250.323671 
L 67.53947 254.244841 
L 68.262531 257.512626 
L 68.985592 258.492901 
L 69.708654 261.216 
L 70.431715 259.146485 
L 71.154776 254.789527 
L 71.877838 251.303947 
L 72.600899 254.135943 
L 73.32396 254.353804 
L 74.047022 254.353804 
L 74.770083 251.630706 
L 75.493144 253.48236 
L 76.216206 248.689812 
L 76.939267 246.620231 
L 77.662328 240.084794 
L 78.38539 241.065069 
L 79.108451 240.193691 
L 80.554574 227.667437 
L 81.277635 227.994262 
L 82.000696 230.826258 
L 82.723758 230.717294 
L 83.446819 226.578197 
L 84.169881 224.508616 
L 84.892942 228.865574 
L 85.616003 230.935155 
L 86.339065 230.063777 
L 87.062126 228.32102 
L 87.785187 224.508682 
L 88.508249 221.785517 
L 89.23131 221.458758 
L 89.954371 220.696277 
L 90.677433 222.330137 
L 91.400494 222.656895 
L 92.123555 225.053235 
L 92.846617 226.033577 
L 93.569678 228.320954 
L 94.292739 231.697636 
L 95.015801 230.281572 
L 95.738862 231.044053 
L 96.461923 234.529632 
L 97.184985 239.43121 
L 97.908046 233.985012 
L 98.631108 233.658254 
L 99.354169 232.677912 
L 100.07723 234.202874 
L 100.800292 234.747493 
L 101.523353 236.163491 
L 102.246414 236.925972 
L 102.969476 236.163491 
L 104.415598 236.163491 
L 105.13866 238.777693 
L 105.861721 239.866932 
L 106.584782 237.906248 
L 107.307844 237.361628 
L 108.030905 235.401077 
L 108.753966 236.381353 
L 109.477028 234.856391 
L 110.200089 232.133292 
L 110.92315 231.261914 
L 111.646212 229.736952 
L 112.369273 226.033577 
L 113.092334 224.290821 
L 113.815396 224.290754 
L 114.538457 223.310479 
L 115.261519 220.696344 
L 115.98458 220.696277 
L 116.707641 218.299937 
L 117.430703 215.032285 
L 118.153764 216.884006 
L 118.876825 217.1018 
L 119.599887 214.160907 
L 120.322948 216.992903 
L 121.046009 217.64642 
L 121.769071 215.141182 
L 122.492132 208.170023 
L 123.215193 205.338027 
L 123.938255 209.694985 
L 125.384377 195.534871 
L 126.107439 190.197571 
L 126.8305 187.692334 
L 127.553561 190.633294 
L 128.276623 191.613636 
L 128.999684 193.683151 
L 129.722745 189.108332 
L 130.445807 188.23702 
L 131.168868 192.049292 
L 131.89193 184.860338 
L 132.614991 174.403665 
L 133.338052 171.462705 
L 134.061114 167.105747 
L 134.784175 169.719882 
L 135.507236 167.432439 
L 136.230298 163.511204 
L 136.953359 160.243485 
L 137.67642 160.788105 
L 138.399482 156.540111 
L 139.122543 159.263209 
L 139.845604 159.807829 
L 140.568666 163.51127 
L 141.291727 168.194987 
L 142.014788 167.759264 
L 143.460911 167.977125 
L 144.183972 167.868162 
L 144.907034 171.135946 
L 145.630095 172.660842 
L 146.353157 175.057182 
L 147.799279 175.819663 
L 148.522341 178.107039 
L 149.245402 176.146422 
L 149.968463 170.373466 
L 150.691525 171.244844 
L 151.414586 167.541403 
L 152.137647 164.600443 
L 152.860709 160.352449 
L 154.306831 168.521745 
L 155.029893 170.482363 
L 155.752954 169.828846 
L 156.476015 172.660842 
L 157.199077 172.9876 
L 157.922138 173.859045 
L 158.645199 173.53222 
L 159.368261 172.334083 
L 160.091322 172.442981 
L 160.814383 170.809121 
L 161.537445 170.482363 
L 162.260506 167.868228 
L 162.983568 167.541403 
L 163.706629 169.28416 
L 164.42969 166.887886 
L 165.152752 165.036165 
L 165.875813 161.332725 
L 166.598874 158.391831 
L 167.321936 149.35109 
L 168.044997 177.56242 
L 168.768058 200.872172 
L 169.49112 204.684443 
L 170.214181 209.150365 
L 170.937242 209.150365 
L 172.383365 189.435157 
L 173.106426 195.425974 
L 173.829488 189.108398 
L 174.552549 190.197638 
L 175.27561 196.188389 
L 176.721733 199.891829 
L 177.444794 199.456107 
L 178.167856 202.179206 
L 178.890917 201.634653 
L 179.613979 202.506031 
L 180.33704 203.813065 
L 181.060101 199.782932 
L 181.783163 192.593911 
L 182.506224 188.345917 
L 183.229285 199.129415 
L 183.952347 207.516506 
L 184.675408 206.862989 
L 185.398469 206.971886 
L 186.121531 213.071601 
L 186.844592 205.120232 
L 188.290715 197.931212 
L 189.013776 189.217296 
L 189.736837 185.731716 
L 190.459899 182.899653 
L 191.18296 182.137172 
L 192.629083 178.433798 
L 194.075206 183.988959 
L 194.798267 181.810414 
L 195.521328 188.999434 
L 196.967451 193.356392 
L 197.690512 187.365575 
L 198.413574 179.95876 
L 199.136635 180.394416 
L 199.859696 174.948218 
L 200.582758 174.07684 
L 201.305819 169.284226 
L 202.02888 161.877344 
L 202.751942 161.005966 
L 203.475003 159.372173 
L 204.198064 161.005966 
L 205.644187 149.89571 
L 206.367248 146.301233 
L 207.09031 144.994132 
L 207.813371 143.360273 
L 208.536432 145.974474 
L 209.259494 147.935092 
L 209.982555 142.053239 
L 210.705617 141.726413 
L 211.428678 144.885235 
L 212.151739 143.142478 
L 212.874801 142.706756 
L 213.597862 145.103096 
L 215.043985 135.735663 
L 216.490107 136.280216 
L 217.213169 136.607041 
L 217.93623 136.38918 
L 218.659291 135.29994 
L 219.382353 138.2409 
L 220.105414 136.824836 
L 220.828475 133.557184 
L 221.551537 137.369455 
L 222.274598 139.112279 
L 222.997659 143.360273 
L 224.443782 154.906185 
L 225.889905 121.684447 
L 226.612966 119.614865 
L 227.336028 117.981006 
L 228.059089 111.227707 
L 228.78215 96.849733 
L 229.505212 98.047936 
L 230.228273 109.484951 
L 230.951334 116.891766 
L 231.674396 122.991481 
L 232.397457 125.061062 
L 233.120518 118.743487 
L 233.84358 115.911491 
L 234.566641 116.129352 
L 235.289702 121.684447 
L 236.012764 122.011205 
L 236.735825 122.664722 
L 237.458886 124.298648 
L 238.181948 124.734304 
L 238.905009 118.307764 
L 239.62807 118.634589 
L 240.351132 103.92979 
L 241.074193 105.236957 
L 241.797255 114.822185 
L 242.520316 105.563649 
L 243.243377 87.155541 
L 243.966439 78.659486 
L 244.6895 76.045285 
L 245.412561 87.046644 
L 246.135623 83.4521 
L 246.858684 75.500665 
L 247.581745 72.015085 
L 248.304807 58.290694 
L 249.027868 58.181731 
L 250.473991 48.378575 
L 251.197052 49.032159 
L 251.920113 47.725058 
L 252.643175 41.625343 
L 253.366236 50.557054 
L 254.089297 49.358984 
L 254.812359 46.091199 
L 255.53542 43.91272 
L 256.258481 43.91272 
L 256.981543 45.328718 
L 257.704604 45.76444 
L 258.427666 51.319535 
L 259.150727 53.171255 
L 259.873788 47.398299 
L 260.59685 33.891703 
L 261.319911 23.217103 
L 262.042972 25.06889 
L 263.489095 19.296 
L 264.935218 37.704041 
L 265.658279 37.812939 
L 266.38134 30.297292 
L 267.104402 27.465163 
L 267.827463 28.990258 
L 268.550524 27.791988 
L 269.273586 29.752673 
L 269.996647 27.683091 
L 270.719708 29.208053 
L 272.165831 27.356266 
L 272.888892 27.465163 
L 273.611954 29.75254 
L 274.335015 25.504612 
L 275.058077 27.682958 
L 275.781138 34.763081 
L 276.504199 31.604327 
L 277.227261 31.931019 
L 277.950322 32.475771 
L 279.396445 30.079365 
L 280.119506 24.851095 
L 280.842567 25.177787 
L 281.565629 24.850962 
L 282.28869 27.683091 
L 283.011751 29.208053 
L 283.734813 29.752673 
L 284.457874 27.791988 
L 285.180935 34.872045 
L 285.903997 40.209345 
L 287.350119 53.062358 
L 288.073181 56.98366 
L 288.796242 57.41925 
L 289.519304 64.499373 
L 290.242365 64.172548 
L 290.965426 67.658127 
L 291.688488 72.668603 
L 292.411549 75.282804 
L 293.857672 76.916663 
L 294.580733 61.449449 
L 295.303794 64.06365 
L 296.026856 58.181797 
L 296.749917 46.200162 
L 297.472978 40.862862 
L 298.19604 48.596503 
L 298.919101 48.596503 
L 299.642162 45.001959 
L 300.365224 47.507197 
L 301.088285 57.41925 
L 302.534408 63.954753 
L 303.257469 65.261787 
L 303.98053 64.281512 
L 304.703592 67.222472 
L 305.426653 66.677852 
L 306.149715 67.54923 
L 306.872776 70.599087 
L 308.318899 72.88653 
L 309.04196 75.282804 
L 309.765021 80.837965 
L 310.488083 87.918022 
L 311.211144 81.164724 
L 311.934205 79.530865 
L 312.657267 83.125342 
L 313.380328 89.551881 
L 314.103389 83.778925 
L 314.826451 79.313003 
L 315.549512 73.322253 
L 316.272573 76.807766 
L 316.995635 78.877347 
L 318.441757 78.441625 
L 319.164819 81.491482 
L 319.88788 85.085959 
L 320.610941 82.798583 
L 321.334003 80.075484 
L 322.057064 79.204106 
L 322.780126 75.391768 
L 323.503187 74.411426 
L 324.226248 79.204106 
L 324.94931 80.511207 
L 325.672371 80.511207 
L 326.395432 81.05576 
L 327.118494 78.332728 
L 327.841555 77.897005 
L 328.564616 77.679144 
L 330.010739 76.481007 
L 330.7338 76.263146 
L 331.456862 77.025561 
L 332.179923 80.075484 
L 332.902984 81.60038 
L 333.626046 81.055826 
L 334.349107 80.293346 
L 335.072168 80.620104 
L 335.79523 83.669961 
L 336.518291 84.650304 
L 337.241353 86.175199 
L 337.964414 91.076777 
L 338.687475 93.36422 
L 339.410537 91.512499 
L 340.133598 92.710636 
L 340.856659 93.146358 
L 341.579721 91.076777 
L 342.302782 91.185674 
L 343.025843 93.473117 
L 343.748905 93.690978 
L 344.471966 85.085959 
L 345.195027 80.293346 
L 345.918089 79.966521 
L 346.64115 80.293346 
L 347.364211 77.461283 
L 348.087273 78.005903 
L 348.087273 78.005903 
" clip-path="url(#pe44f477c3f)" style="fill: none; stroke: #ff0000; stroke-width: 1.5; stroke-linecap: square"/>
   </g>
   <g id="patch_3">
    <path d="M 7.2 273.312 
L 7.2 7.2 
" style="fill: none; stroke: #000000; stroke-width: 0.8; stroke-linejoin: miter; stroke-linecap: square"/>
   </g>
   <g id="patch_4">
    <path d="M 364.32 273.312 
L 364.32 7.2 
" style="fill: none; stroke: #000000; stroke-width: 0.8; stroke-linejoin: miter; stroke-linecap: square"/>
   </g>
   <g id="patch_5">
    <path d="M 7.2 273.312 
L 364.32 273.312 
" style="fill: none; stroke: #000000; stroke-width: 0.8; stroke-linejoin: miter; stroke-linecap: square"/>
   </g>
   <g id="patch_6">
    <path d="M 7.2 7.2 
L 364.32 7.2 
" style="fill: none; stroke: #000000; stroke-width: 0.8; stroke-linejoin: miter; stroke-linecap: square"/>
   </g>
  </g>
  <g id="axes_2">
   <g id="matplotlib.axis_3"/>
   <g id="line2d_2">
    <path d="M 23.432727 170.369283 
L 24.155789 133.057332 
L 24.87885 154.275728 
L 25.601911 149.980453 
L 26.324973 147.676102 
L 27.048034 155.86123 
L 27.771095 158.441924 
L 28.494157 149.593394 
L 29.217218 147.196869 
L 29.940279 158.847526 
L 30.663341 157.686169 
L 31.386402 152.063551 
L 32.109463 148.597842 
L 32.832525 153.63051 
L 33.555586 148.616205 
L 34.278647 149.224698 
L 35.001709 151.363064 
L 35.72477 152.155725 
L 36.447832 142.606529 
L 37.170893 126.439163 
L 37.893954 114.917585 
L 38.617016 122.715475 
L 39.340077 128.209012 
L 40.063138 123.581767 
L 40.7862 128.301187 
L 41.509261 132.209403 
L 42.232322 123.379056 
L 42.955384 121.424858 
L 43.678445 121.388132 
L 44.401506 128.098476 
L 45.124568 119.139049 
L 45.847629 118.770353 
L 46.57069 116.300016 
L 47.293752 116.005131 
L 48.016813 125.628139 
L 48.739874 132.965158 
L 49.462936 136.430867 
L 50.185997 138.735218 
L 50.909059 127.637425 
L 51.63212 112.742133 
L 52.355181 112.354894 
L 53.078243 115.654798 
L 53.801304 117.811707 
L 54.524365 110.253434 
L 55.247427 114.475078 
L 55.970488 115.267739 
L 56.693549 111.765124 
L 57.416611 115.452087 
L 58.139672 117.535184 
L 58.862733 117.516822 
L 59.585795 119.009969 
L 60.308856 115.67334 
L 61.754979 107.322227 
L 62.47804 106.824451 
L 63.201101 112.649959 
L 63.924163 109.386962 
L 64.647224 99.487432 
L 65.370285 93.699009 
L 66.816408 132.614824 
L 67.53947 130.347379 
L 68.262531 129.849603 
L 68.985592 133.389123 
L 69.708654 135.380046 
L 70.431715 140.947395 
L 71.154776 147.694645 
L 71.877838 148.800553 
L 72.600899 154.570613 
L 73.32396 161.317863 
L 74.047022 174.73837 
L 75.493144 182.978766 
L 76.939267 178.664949 
L 77.662328 228.733826 
L 78.38539 253.934429 
L 79.108451 255.427577 
L 79.831512 260.570962 
L 80.554574 258.469321 
L 81.277635 261.216 
L 82.000696 248.219638 
L 82.723758 227.074692 
L 83.446819 224.530904 
L 84.169881 227.885896 
L 84.892942 226.2084 
L 85.616003 229.913725 
L 86.339065 249.67588 
L 87.062126 252.828341 
L 87.785187 246.210171 
L 88.508249 241.656737 
L 89.23131 234.080101 
L 89.954371 230.153342 
L 91.400494 235.481255 
L 92.123555 234.522428 
L 92.846617 233.103092 
L 93.569678 227.037967 
L 95.015801 227.019604 
L 95.738862 230.558944 
L 96.461923 236.476627 
L 97.184985 244.108531 
L 97.908046 245.896923 
L 98.631108 243.832008 
L 99.354169 246.154723 
L 100.07723 250.247467 
L 100.800292 248.661965 
L 101.523353 250.560715 
L 102.246414 254.874533 
L 103.692537 251.353376 
L 104.415598 247.297897 
L 105.13866 250.450178 
L 105.861721 249.510074 
L 106.584782 251.961868 
L 107.307844 248.772682 
L 108.030905 246.615773 
L 108.753966 238.430645 
L 109.477028 232.052272 
L 110.200089 227.959707 
L 110.92315 227.64628 
L 111.646212 227.720091 
L 112.369273 229.692652 
L 113.092334 228.863085 
L 113.815396 228.5682 
L 114.538457 228.6971 
L 115.261519 227.185409 
L 115.98458 226.742902 
L 116.707641 222.502895 
L 117.430703 220.401435 
L 118.153764 217.101531 
L 118.876825 218.834476 
L 119.599887 217.414959 
L 120.322948 219.221535 
L 121.046009 218.355062 
L 121.769071 216.493218 
L 122.492132 215.534572 
L 123.215193 215.221324 
L 123.938255 216.253602 
L 124.661316 212.400654 
L 125.384377 210.483542 
L 126.8305 193.652415 
L 127.553561 193.836943 
L 128.276623 192.675406 
L 129.722745 175.568116 
L 130.445807 175.383588 
L 131.168868 187.495295 
L 131.89193 174.590927 
L 132.614991 179.32871 
L 133.338052 186.665729 
L 135.507236 161.778733 
L 136.230298 156.727522 
L 136.953359 158.865889 
L 137.67642 165.742217 
L 138.399482 180.729683 
L 139.122543 178.830934 
L 139.845604 179.291804 
L 140.568666 177.245432 
L 141.291727 190.795199 
L 142.014788 191.384969 
L 142.73785 190.020901 
L 144.183972 185.762351 
L 144.907034 182.941861 
L 145.630095 191.182258 
L 146.353157 202.150971 
L 147.076218 211.184029 
L 147.799279 217.636213 
L 148.522341 215.682015 
L 149.245402 214.926259 
L 149.968463 211.478914 
L 150.691525 210.317556 
L 151.414586 209.635432 
L 152.137647 209.211468 
L 153.58377 193.836763 
L 154.306831 194.15019 
L 155.029893 184.730074 
L 155.752954 185.375292 
L 156.476015 193.431341 
L 157.922138 203.478313 
L 158.645199 203.902278 
L 159.368261 197.579173 
L 160.091322 201.819 
L 160.814383 203.865372 
L 161.537445 200.584012 
L 162.260506 194.53743 
L 162.983568 191.643128 
L 163.706629 191.827476 
L 164.42969 190.905736 
L 165.152752 192.398883 
L 165.875813 188.564478 
L 166.598874 178.333158 
L 167.321936 172.434018 
L 168.044997 171.309567 
L 168.768058 180.065922 
L 169.49112 187.163505 
L 170.214181 190.389597 
L 170.937242 191.514048 
L 171.660304 190.905736 
L 172.383365 195.514439 
L 173.106426 195.827866 
L 173.829488 194.352901 
L 174.552549 194.039654 
L 175.27561 198.298203 
L 175.998672 199.883525 
L 176.721733 201.081788 
L 177.444794 204.694939 
L 178.167856 203.71793 
L 178.890917 201.524295 
L 179.613979 195.219554 
L 180.33704 186.352481 
L 181.060101 181.190734 
L 181.783163 183.550354 
L 182.506224 177.853925 
L 183.229285 174.203868 
L 183.952347 178.462238 
L 184.675408 173.484838 
L 185.398469 174.314405 
L 186.121531 171.125038 
L 186.844592 161.188783 
L 187.567653 161.704922 
L 188.290715 154.386265 
L 189.013776 152.708769 
L 189.736837 149.279966 
L 190.459899 148.653111 
L 191.18296 148.487306 
L 191.906021 148.855822 
L 192.629083 149.648663 
L 194.075206 161.133514 
L 194.798267 163.474592 
L 195.521328 162.589937 
L 196.24439 164.617766 
L 196.967451 165.816029 
L 197.690512 165.908203 
L 198.413574 157.723074 
L 199.136635 155.879593 
L 199.859696 156.801334 
L 200.582758 155.584708 
L 201.305819 152.837849 
L 202.02888 142.274738 
L 202.751942 128.946225 
L 203.475003 120.318769 
L 204.198064 118.217308 
L 204.921126 119.636825 
L 205.644187 116.484544 
L 206.367248 119.47084 
L 207.09031 123.729209 
L 207.813371 115.304644 
L 208.536432 112.502517 
L 209.259494 115.08339 
L 209.982555 112.244357 
L 210.705617 105.663094 
L 211.428678 107.912357 
L 212.151739 108.041256 
L 212.874801 103.875061 
L 213.597862 102.732066 
L 214.320923 101.054391 
L 215.043985 101.496898 
L 215.767046 103.635264 
L 216.490107 98.270806 
L 217.93623 96.427325 
L 219.382353 103.045494 
L 220.105414 103.653807 
L 220.828475 103.967235 
L 221.551537 104.446468 
L 222.274598 106.253044 
L 222.997659 108.686475 
L 223.720721 107.377495 
L 224.443782 104.00396 
L 225.889905 99.100373 
L 226.612966 99.08201 
L 228.059089 86.36181 
L 228.78215 83.615131 
L 229.505212 86.196004 
L 230.228273 85.827308 
L 230.951334 81.919092 
L 231.674396 82.121983 
L 232.397457 79.817631 
L 233.120518 85.993113 
L 233.84358 85.200632 
L 234.566641 82.730296 
L 235.289702 83.15426 
L 236.012764 79.15387 
L 236.735825 70.618588 
L 237.458886 73.734143 
L 238.181948 64.424383 
L 238.905009 48.847147 
L 239.62807 57.400792 
L 240.351132 49.142032 
L 241.074193 51.040962 
L 241.797255 55.796927 
L 242.520316 57.400792 
L 243.243377 55.575674 
L 243.966439 49.750345 
L 244.6895 46.081926 
L 245.412561 47.575073 
L 246.135623 42.358058 
L 246.858684 35.408098 
L 247.581745 35.795157 
L 248.304807 28.089441 
L 249.750929 19.332906 
L 250.473991 19.296 
L 251.197052 22.411555 
L 251.920113 21.932322 
L 252.643175 23.849435 
L 253.366236 28.660848 
L 254.089297 32.200548 
L 254.812359 28.587217 
L 255.53542 33.841139 
L 256.258481 34.891779 
L 256.981543 37.269942 
L 257.704604 37.933703 
L 258.427666 39.316314 
L 259.150727 34.467994 
L 260.59685 30.393973 
L 261.319911 31.665867 
L 262.042972 33.767327 
L 262.766034 31.776404 
L 263.489095 30.96538 
L 264.212156 31.592056 
L 264.935218 30.928474 
L 265.658279 22.798614 
L 266.38134 21.047487 
L 267.104402 26.504119 
L 267.827463 26.854453 
L 268.550524 28.826834 
L 269.273586 28.421232 
L 269.996647 32.182005 
L 270.719708 37.233216 
L 271.44277 38.689458 
L 272.165831 39.021429 
L 272.888892 45.104917 
L 273.611954 47.575073 
L 274.335015 48.588988 
L 275.058077 47.206377 
L 275.781138 43.482509 
L 276.504199 42.265884 
L 277.950322 45.58415 
L 278.673383 45.952846 
L 279.396445 47.519805 
L 280.119506 48.109755 
L 280.842567 50.76426 
L 281.565629 50.524643 
L 282.28869 52.497204 
L 283.011751 53.824547 
L 283.734813 54.30378 
L 284.457874 53.787641 
L 285.180935 55.962913 
L 285.903997 60.79287 
L 286.627058 60.829595 
L 287.350119 59.557701 
L 288.073181 57.677314 
L 288.796242 58.119822 
L 289.519304 59.963303 
L 290.965426 71.079459 
L 292.411549 67.0238 
L 293.13461 68.959455 
L 293.857672 67.669018 
L 294.580733 86.878128 
L 295.303794 89.698618 
L 296.026856 85.366438 
L 297.472978 89.329922 
L 298.19604 90.841613 
L 298.919101 92.095144 
L 301.088285 53.160785 
L 301.811346 51.022419 
L 302.534408 54.746287 
L 303.257469 54.119432 
L 303.98053 51.262036 
L 304.703592 57.824757 
L 305.426653 58.230539 
L 306.149715 59.133736 
L 307.595837 54.819918 
L 308.318899 55.796927 
L 309.04196 54.359048 
L 309.765021 56.147261 
L 310.488083 62.839062 
L 311.211144 77.84507 
L 311.934205 82.527405 
L 312.657267 92.334761 
L 313.380328 110.898652 
L 314.103389 109.995454 
L 314.826451 110.179622 
L 316.272573 84.702856 
L 316.995635 77.25512 
L 317.718696 71.189995 
L 318.441757 66.157328 
L 320.610941 43.8143 
L 321.334003 41.196701 
L 322.057064 43.777394 
L 322.780126 45.32599 
L 323.503187 43.832843 
L 324.226248 44.902026 
L 324.94931 43.703763 
L 325.672371 58.783583 
L 326.395432 63.078678 
L 327.118494 59.889492 
L 327.841555 59.115194 
L 328.564616 54.395954 
L 329.287678 58.322533 
L 330.010739 54.340685 
L 330.7338 51.077688 
L 331.456862 50.17431 
L 332.179923 51.925617 
L 332.902984 56.055087 
L 333.626046 51.520195 
L 334.349107 45.104737 
L 335.072168 37.528101 
L 335.79523 38.173319 
L 336.518291 44.017191 
L 337.241353 42.321152 
L 337.964414 44.238444 
L 338.687475 43.205987 
L 339.410537 46.247731 
L 340.133598 44.680772 
L 340.856659 43.537778 
L 341.579721 45.565607 
L 342.302782 46.081746 
L 343.025843 52.792089 
L 343.748905 49.953236 
L 344.471966 45.012563 
L 345.195027 41.012352 
L 345.918089 43.648494 
L 348.087273 47.593436 
L 348.087273 47.593436 
" clip-path="url(#pe44f477c3f)" style="fill: none; stroke: #0000ff; stroke-width: 1.5; stroke-linecap: square"/>
   </g>
   <g id="patch_7">
    <path d="M 7.2 273.312 
L 7.2 7.2 
" style="fill: none; stroke: #000000; stroke-width: 0.8; stroke-linejoin: miter; stroke-linecap: square"/>
   </g>
   <g id="patch_8">
    <path d="M 364.32 273.312 
L 364.32 7.2 
" style="fill: none; stroke: #000000; stroke-width: 0.8; stroke-linejoin: miter; stroke-linecap: square"/>
   </g>
   <g id="patch_9">
    <path d="M 7.2 273.312 
L 364.32 273.312 
" style="fill: none; stroke: #000000; stroke-width: 0.8; stroke-linejoin: miter; stroke-linecap: square"/>
   </g>
   <g id="patch_10">
    <path d="M 7.2 7.2 
L 364.32 7.2 
" style="fill: none; stroke: #000000; stroke-width: 0.8; stroke-linejoin: miter; stroke-linecap: square"/>
   </g>
  </g>
  <g id="axes_3">
   <g id="matplotlib.axis_4"/>
   <g id="line2d_3">
    <path d="M 23.432727 132.672725 
L 24.155789 145.352946 
L 24.87885 154.303823 
L 25.601911 145.104373 
L 26.324973 149.08244 
L 27.048034 150.076881 
L 27.771095 141.872175 
L 28.494157 137.396812 
L 29.217218 143.861208 
L 29.940279 158.530614 
L 30.663341 156.541429 
L 31.386402 147.590703 
L 32.109463 147.839275 
L 33.555586 173.697165 
L 34.278647 170.713539 
L 35.001709 176.432067 
L 35.72477 186.128813 
L 36.447832 178.669824 
L 37.170893 176.680791 
L 37.893954 167.978485 
L 38.617016 167.978637 
L 39.340077 156.790153 
L 40.063138 149.828309 
L 40.7862 150.574329 
L 41.509261 148.833868 
L 42.232322 144.855649 
L 42.955384 151.320197 
L 43.678445 152.31479 
L 44.401506 156.541429 
L 45.124568 157.287298 
L 45.847629 152.811935 
L 46.57069 155.04954 
L 48.016813 172.454 
L 48.739874 170.464966 
L 49.462936 167.978637 
L 50.185997 170.713539 
L 50.909059 170.216242 
L 51.63212 168.973078 
L 52.355181 164.995011 
L 53.078243 168.475781 
L 53.801304 167.232616 
L 54.524365 166.73532 
L 55.247427 169.221802 
L 55.970488 176.680791 
L 56.693549 182.150746 
L 57.416611 194.830967 
L 58.139672 195.82556 
L 58.862733 198.809034 
L 59.585795 208.50578 
L 60.308856 201.543936 
L 61.031917 199.555054 
L 61.754979 198.311889 
L 62.47804 197.814593 
L 63.201101 206.019451 
L 63.924163 210.743386 
L 64.647224 207.014043 
L 65.370285 201.79266 
L 66.816408 218.202375 
L 67.53947 229.888155 
L 68.262531 238.838881 
L 68.985592 241.325362 
L 69.708654 249.032924 
L 70.431715 245.800726 
L 71.154776 233.866373 
L 71.877838 227.899121 
L 72.600899 235.606835 
L 73.32396 242.071079 
L 74.047022 241.822659 
L 74.770083 236.849848 
L 75.493144 248.287055 
L 76.216206 248.287055 
L 76.939267 249.032924 
L 77.662328 261.216 
L 78.38539 259.724111 
L 79.108451 249.53022 
L 79.831512 235.358111 
L 80.554574 224.169627 
L 81.277635 221.434725 
L 82.000696 230.882747 
L 82.723758 225.412792 
L 83.446819 216.461914 
L 84.892942 221.186001 
L 85.616003 222.926462 
L 86.339065 217.207934 
L 87.062126 219.445692 
L 87.785187 211.489406 
L 88.508249 208.008484 
L 89.23131 208.257208 
L 89.954371 207.262615 
L 90.677433 213.975736 
L 91.400494 212.483999 
L 92.123555 209.251649 
L 92.846617 208.008484 
L 93.569678 209.500221 
L 94.292739 208.257056 
L 95.015801 207.759912 
L 95.738862 209.997517 
L 96.461923 219.942836 
L 97.184985 232.623209 
L 97.908046 225.910088 
L 98.631108 232.871781 
L 99.354169 233.866222 
L 100.07723 239.336329 
L 100.800292 241.573935 
L 101.523353 240.33077 
L 102.246414 239.336177 
L 103.692537 233.617801 
L 104.415598 229.639583 
L 105.13866 234.114946 
L 105.861721 231.379892 
L 106.584782 234.612242 
L 107.307844 234.612242 
L 108.030905 231.87734 
L 110.200089 195.825408 
L 110.92315 179.912989 
L 111.646212 181.902022 
L 112.369273 181.404726 
L 113.092334 178.4211 
L 113.815396 172.951296 
L 114.538457 171.459407 
L 115.261519 171.210835 
L 115.98458 174.940329 
L 116.707641 176.680791 
L 117.430703 179.664265 
L 118.153764 180.410285 
L 118.876825 180.161561 
L 119.599887 175.686198 
L 120.322948 177.923955 
L 121.769071 170.962263 
L 122.492132 168.724505 
L 123.215193 171.210683 
L 123.938255 172.454 
L 124.661316 172.454 
L 125.384377 172.951296 
L 126.107439 172.205276 
L 126.8305 173.448441 
L 127.553561 175.437474 
L 128.276623 176.929363 
L 128.999684 179.912989 
L 129.722745 181.156154 
L 130.445807 184.139628 
L 131.168868 191.847341 
L 131.89193 167.232616 
L 133.338052 144.607077 
L 134.061114 137.893956 
L 134.784175 136.899516 
L 136.230298 114.771121 
L 136.953359 112.036067 
L 137.67642 121.732965 
L 138.399482 120.4898 
L 139.122543 112.782087 
L 139.845604 115.268417 
L 140.568666 118.500615 
L 141.291727 126.705625 
L 142.014788 123.721847 
L 142.73785 119.246636 
L 143.460911 117.506174 
L 144.183972 120.738221 
L 144.907034 124.716439 
L 145.630095 125.462308 
L 147.076218 143.363912 
L 147.799279 146.347538 
L 148.522341 143.612484 
L 149.968463 134.164462 
L 150.691525 131.180836 
L 152.137647 118.003319 
L 152.860709 117.506174 
L 153.58377 120.986945 
L 154.306831 126.705473 
L 155.029893 126.456901 
L 155.752954 131.42956 
L 156.476015 134.661758 
L 157.199077 137.148088 
L 157.922138 132.175429 
L 158.645199 129.191803 
L 159.368261 128.197362 
L 160.091322 125.711032 
L 160.814383 124.716439 
L 161.537445 122.23011 
L 162.260506 121.235669 
L 162.983568 124.716439 
L 163.706629 125.213736 
L 164.42969 122.23011 
L 165.152752 118.749339 
L 165.875813 118.003319 
L 167.321936 119.495056 
L 168.768058 121.981537 
L 169.49112 119.74378 
L 170.214181 121.981537 
L 170.937242 120.738373 
L 171.660304 120.489649 
L 172.383365 120.489649 
L 173.106426 123.473275 
L 173.829488 122.727406 
L 174.552549 123.473275 
L 175.27561 122.23011 
L 175.998672 122.23011 
L 176.721733 121.732813 
L 177.444794 126.208177 
L 178.167856 127.202769 
L 178.890917 128.94323 
L 179.613979 128.94323 
L 180.33704 129.689099 
L 181.060101 128.694506 
L 182.506224 122.975978 
L 183.229285 122.975978 
L 183.952347 127.202769 
L 184.675408 126.705473 
L 185.398469 121.235517 
L 186.121531 100.847735 
L 186.844592 98.112833 
L 187.567653 93.886042 
L 188.290715 87.172922 
L 189.736837 68.525449 
L 190.459899 67.03356 
L 191.906021 52.364154 
L 192.629083 55.596504 
L 193.352144 65.790396 
L 194.075206 71.757647 
L 194.798267 64.795955 
L 196.24439 81.20567 
L 196.967451 85.432461 
L 197.690512 79.962505 
L 198.413574 77.227603 
L 199.136635 73.249385 
L 199.859696 74.492701 
L 201.305819 60.817736 
L 202.02888 57.088393 
L 202.751942 58.082682 
L 203.475003 55.34778 
L 204.198064 54.35334 
L 204.921126 57.83411 
L 205.644187 59.823295 
L 206.367248 54.850636 
L 207.09031 56.342373 
L 207.813371 53.358747 
L 208.536432 53.110175 
L 209.259494 48.883384 
L 209.982555 47.888791 
L 210.705617 50.623845 
L 211.428678 45.651186 
L 212.151739 47.640219 
L 212.874801 45.899758 
L 213.597862 47.888791 
L 215.043985 44.905317 
L 217.213169 50.375273 
L 217.93623 45.402613 
L 218.659291 45.153889 
L 219.382353 46.645627 
L 220.828475 43.910725 
L 221.551537 39.683934 
L 222.274598 37.197604 
L 222.997659 38.440769 
L 223.720721 35.457143 
L 224.443782 31.976372 
L 225.889905 28.246878 
L 226.612966 28.49545 
L 227.336028 27.500858 
L 228.059089 28.744174 
L 228.78215 29.241471 
L 229.505212 30.484484 
L 230.228273 28.992746 
L 230.951334 28.49545 
L 231.674396 28.744174 
L 232.397457 24.765956 
L 233.120518 22.776922 
L 233.84358 19.793296 
L 234.566641 19.793296 
L 235.289702 31.479076 
L 236.012764 32.473517 
L 236.735825 30.98178 
L 237.458886 28.744022 
L 238.181948 32.225096 
L 238.905009 26.506417 
L 239.62807 19.296 
L 240.351132 89.659252 
L 241.074193 73.000812 
L 241.797255 66.287692 
L 242.520316 52.364154 
L 243.243377 56.093801 
L 243.966439 49.38068 
L 244.6895 47.888791 
L 245.412561 54.601912 
L 246.135623 45.153889 
L 246.858684 39.683934 
L 247.581745 40.678526 
L 248.304807 46.397054 
L 249.027868 48.63466 
L 250.473991 50.623845 
L 251.197052 58.082834 
L 251.920113 62.309473 
L 253.366236 76.481735 
L 254.089297 79.713933 
L 254.812359 70.265759 
L 255.53542 72.254944 
L 256.258481 66.536264 
L 256.981543 62.309473 
L 257.704604 56.839669 
L 258.427666 60.569164 
L 259.150727 62.558197 
L 259.873788 61.812329 
L 260.59685 60.071868 
L 261.319911 63.055494 
L 262.042972 70.265759 
L 262.766034 72.254944 
L 263.489095 70.514483 
L 264.212156 71.508923 
L 264.935218 76.481735 
L 265.658279 74.243825 
L 266.38134 72.503516 
L 267.104402 70.265759 
L 267.827463 68.774021 
L 268.550524 70.763055 
L 269.273586 69.271166 
L 269.996647 71.508923 
L 270.719708 78.71934 
L 271.44277 79.713933 
L 272.165831 77.227603 
L 272.888892 77.724899 
L 273.611954 83.443427 
L 274.335015 86.178329 
L 275.058077 89.907824 
L 275.781138 86.924198 
L 276.504199 82.697559 
L 277.227261 81.20567 
L 277.950322 81.951538 
L 278.673383 80.708374 
L 280.842567 99.355846 
L 281.565629 98.85855 
L 282.28869 102.588045 
L 283.011751 104.825802 
L 283.734813 106.566111 
L 284.457874 107.063559 
L 285.180935 109.798461 
L 285.903997 117.008726 
L 286.627058 119.74378 
L 287.350119 115.019693 
L 288.073181 115.516989 
L 289.519304 111.041626 
L 290.965426 117.506023 
L 291.688488 118.997912 
L 292.411549 119.246484 
L 293.13461 118.749339 
L 293.857672 115.268417 
L 294.580733 85.432461 
L 295.303794 95.377779 
L 296.026856 98.858702 
L 296.749917 96.869517 
L 297.472978 102.588045 
L 298.19604 103.085493 
L 298.919101 104.079933 
L 299.642162 110.295758 
L 300.365224 111.538922 
L 301.088285 117.25745 
L 301.811346 114.522548 
L 302.534408 113.776528 
L 303.257469 106.317539 
L 303.98053 108.306724 
L 304.703592 117.506174 
L 306.149715 121.235517 
L 306.872776 126.954197 
L 307.595837 124.716439 
L 308.318899 118.251891 
L 309.04196 118.251891 
L 309.765021 117.506023 
L 310.488083 119.74378 
L 311.211144 122.478682 
L 311.934205 127.700065 
L 312.657267 131.678132 
L 313.380328 134.413186 
L 314.103389 132.672725 
L 314.826451 133.170021 
L 315.549512 126.705473 
L 316.272573 123.473275 
L 316.995635 121.732813 
L 317.718696 122.23011 
L 318.441757 126.456901 
L 319.164819 123.224702 
L 319.88788 115.517141 
L 320.610941 115.765562 
L 321.334003 114.0251 
L 322.057064 117.506023 
L 322.780126 125.959604 
L 323.503187 129.191803 
L 324.226248 136.402068 
L 324.94931 140.62901 
L 325.672371 141.126155 
L 326.395432 143.612484 
L 327.118494 141.872175 
L 327.841555 142.866616 
L 328.564616 137.893956 
L 329.287678 136.650792 
L 330.010739 134.413186 
L 330.7338 136.899516 
L 331.456862 132.672573 
L 332.902984 139.137121 
L 333.626046 138.391253 
L 335.072168 130.435119 
L 335.79523 129.937671 
L 336.518291 128.694658 
L 337.241353 123.473275 
L 337.964414 125.71088 
L 338.687475 123.224702 
L 339.410537 118.749339 
L 340.133598 118.251891 
L 340.856659 114.771121 
L 342.302782 113.776528 
L 343.025843 110.54433 
L 343.748905 108.803869 
L 345.918089 96.620944 
L 346.64115 94.383187 
L 347.364211 93.388746 
L 348.087273 95.377779 
L 348.087273 95.377779 
" clip-path="url(#pe44f477c3f)" style="fill: none; stroke: #008000; stroke-width: 1.5; stroke-linecap: square"/>
   </g>
   <g id="patch_11">
    <path d="M 7.2 273.312 
L 7.2 7.2 
" style="fill: none; stroke: #000000; stroke-width: 0.8; stroke-linejoin: miter; stroke-linecap: square"/>
   </g>
   <g id="patch_12">
    <path d="M 364.32 273.312 
L 364.32 7.2 
" style="fill: none; stroke: #000000; stroke-width: 0.8; stroke-linejoin: miter; stroke-linecap: square"/>
   </g>
   <g id="patch_13">
    <path d="M 7.2 273.312 
L 364.32 273.312 
" style="fill: none; stroke: #000000; stroke-width: 0.8; stroke-linejoin: miter; stroke-linecap: square"/>
   </g>
   <g id="patch_14">
    <path d="M 7.2 7.2 
L 364.32 7.2 
" style="fill: none; stroke: #000000; stroke-width: 0.8; stroke-linejoin: miter; stroke-linecap: square"/>
   </g>
  </g>
  <g id="axes_4">
   <g id="matplotlib.axis_5"/>
   <g id="line2d_4">
    <path d="M 23.432727 142.713403 
L 24.155789 130.538272 
L 24.87885 125.698424 
L 25.601911 132.126445 
L 26.324973 133.185104 
L 27.048034 131.521233 
L 27.771095 145.965816 
L 28.494157 149.822333 
L 29.217218 150.729597 
L 29.940279 163.358914 
L 30.663341 153.074377 
L 31.386402 162.602677 
L 32.109463 162.451281 
L 32.832525 170.240751 
L 33.555586 181.1305 
L 34.278647 175.761139 
L 35.001709 177.046891 
L 35.72477 179.618025 
L 36.447832 187.93664 
L 37.170893 186.953679 
L 37.893954 177.954524 
L 38.617016 187.331797 
L 40.063138 181.962436 
L 40.7862 189.373418 
L 41.509261 204.498172 
L 42.232322 205.93495 
L 42.955384 205.93495 
L 43.678445 213.270972 
L 44.401506 212.968182 
L 45.124568 217.127489 
L 45.847629 213.497327 
L 46.57069 219.396202 
L 47.293752 229.378688 
L 48.739874 222.496851 
L 49.462936 222.118363 
L 50.185997 225.446104 
L 50.909059 219.396202 
L 51.63212 215.161197 
L 52.355181 195.499017 
L 53.078243 193.00358 
L 53.801304 200.187469 
L 54.524365 203.288487 
L 55.970488 216.220226 
L 56.693549 218.488939 
L 57.416611 231.496006 
L 58.139672 233.310902 
L 58.862733 228.244331 
L 59.585795 231.874125 
L 60.308856 229.151595 
L 61.031917 229.075897 
L 61.754979 229.832135 
L 62.47804 218.790991 
L 63.201101 218.186148 
L 63.924163 221.891639 
L 64.647224 221.362494 
L 65.370285 215.0855 
L 66.093347 219.396202 
L 66.816408 218.866688 
L 67.53947 224.463143 
L 68.262531 245.183982 
L 68.985592 249.948132 
L 69.708654 246.469365 
L 70.431715 261.216 
L 71.154776 258.796261 
L 71.877838 233.159507 
L 72.600899 246.998879 
L 73.32396 235.352892 
L 74.047022 225.824223 
L 74.770083 220.757283 
L 75.493144 217.354213 
L 76.216206 216.219856 
L 76.939267 220.076742 
L 77.662328 210.472745 
L 78.38539 198.372573 
L 79.108451 223.025996 
L 79.831512 228.168634 
L 80.554574 228.092936 
L 81.277635 231.647032 
L 82.000696 226.278039 
L 82.723758 226.429065 
L 84.169881 195.423689 
L 84.892942 202.380854 
L 85.616003 203.515211 
L 86.339065 199.280575 
L 87.062126 189.676208 
L 87.785187 189.600511 
L 88.508249 175.383389 
L 89.23131 171.97995 
L 89.954371 186.197441 
L 90.677433 178.635064 
L 91.400494 160.938806 
L 92.123555 139.764519 
L 92.846617 126.000845 
L 93.569678 118.967982 
L 94.292739 147.705015 
L 95.015801 157.006591 
L 95.738862 150.502873 
L 96.461923 154.359759 
L 97.184985 172.207043 
L 97.908046 166.232839 
L 98.631108 164.795692 
L 99.354169 162.14886 
L 100.07723 151.864323 
L 100.800292 157.460408 
L 102.246414 177.727431 
L 102.969476 167.291129 
L 103.692537 147.931739 
L 104.415598 139.3864 
L 105.13866 148.612279 
L 105.861721 154.737878 
L 106.584782 166.081444 
L 107.307844 156.326051 
L 108.030905 154.511155 
L 108.753966 146.570289 
L 109.477028 152.015349 
L 110.200089 135.227093 
L 111.646212 155.494116 
L 112.369273 155.72084 
L 113.092334 157.082289 
L 113.815396 164.115521 
L 114.538457 162.980795 
L 115.261519 162.602677 
L 115.98458 151.183413 
L 116.707641 151.94002 
L 117.430703 154.133036 
L 118.153764 148.083134 
L 118.876825 139.991243 
L 119.599887 143.47001 
L 120.322948 131.672628 
L 121.046009 126.000845 
L 121.769071 122.900197 
L 122.492132 117.757928 
L 123.215193 110.649368 
L 123.938255 114.506254 
L 124.661316 115.111096 
L 126.107439 109.288287 
L 126.8305 99.834947 
L 127.553561 80.551254 
L 128.276623 76.31588 
L 128.999684 74.727707 
L 129.722745 66.409092 
L 130.445807 56.048857 
L 131.168868 63.384511 
L 131.89193 54.763105 
L 132.614991 55.897831 
L 133.338052 60.888705 
L 134.061114 60.964402 
L 134.784175 67.241028 
L 135.507236 60.661612 
L 136.230298 65.199407 
L 137.67642 95.751337 
L 138.399482 95.221823 
L 139.122543 91.516332 
L 139.845604 90.457673 
L 140.568666 85.542128 
L 141.291727 103.46474 
L 142.014788 108.909799 
L 142.73785 112.388567 
L 143.460911 122.975894 
L 144.183972 106.49006 
L 145.630095 130.765364 
L 146.353157 140.823178 
L 147.076218 140.520757 
L 147.799279 153.527824 
L 149.245402 126.454662 
L 149.968463 126.757083 
L 150.691525 125.925517 
L 152.137647 139.76415 
L 152.860709 119.572825 
L 153.58377 116.094057 
L 154.306831 129.025796 
L 155.029893 130.6136 
L 155.752954 137.04162 
L 156.476015 139.537426 
L 157.199077 141.503718 
L 157.922138 149.59561 
L 158.645199 151.712927 
L 159.368261 145.284907 
L 160.091322 148.915069 
L 160.814383 149.973359 
L 161.537445 140.974574 
L 162.260506 141.881837 
L 162.983568 147.705015 
L 163.706629 149.59524 
L 164.42969 156.855565 
L 165.152752 152.771586 
L 165.875813 154.435457 
L 166.598874 153.3011 
L 167.321936 150.427176 
L 168.044997 152.771956 
L 168.768058 153.527824 
L 169.49112 155.494116 
L 170.214181 151.561532 
L 170.937242 142.184258 
L 171.660304 140.217967 
L 172.383365 140.747481 
L 173.106426 142.259956 
L 173.829488 152.544494 
L 174.552549 167.2158 
L 175.27561 172.962912 
L 175.998672 183.702004 
L 176.721733 178.861787 
L 177.444794 178.40834 
L 178.167856 185.21411 
L 178.890917 187.331797 
L 179.613979 190.659169 
L 180.33704 192.625461 
L 181.060101 183.021095 
L 181.783163 162.451651 
L 182.506224 147.251199 
L 183.229285 149.671307 
L 183.952347 167.442893 
L 184.675408 182.340555 
L 185.398469 153.905943 
L 186.121531 161.165899 
L 186.844592 140.066941 
L 187.567653 106.716784 
L 188.290715 106.792481 
L 189.013776 130.008757 
L 189.736837 138.100649 
L 190.459899 150.880992 
L 191.18296 146.116473 
L 191.906021 137.949623 
L 192.629083 128.118532 
L 193.352144 124.564068 
L 194.075206 133.260801 
L 194.798267 135.226724 
L 195.521328 133.487525 
L 196.24439 135.529514 
L 196.967451 145.587328 
L 197.690512 140.596085 
L 198.413574 132.353168 
L 199.136635 129.403915 
L 199.859696 122.975894 
L 200.582758 117.984652 
L 201.305819 130.311548 
L 202.02888 134.31946 
L 202.751942 129.403915 
L 203.475003 133.487525 
L 204.198064 143.999524 
L 204.921126 141.655114 
L 205.644187 141.428021 
L 206.367248 139.310703 
L 207.09031 131.218812 
L 207.813371 135.453817 
L 209.259494 142.562377 
L 209.982555 142.789101 
L 210.705617 141.655114 
L 211.428678 141.579047 
L 212.151739 143.469641 
L 212.874801 143.016194 
L 213.597862 137.495437 
L 214.320923 138.554465 
L 215.043985 138.478768 
L 215.767046 137.646832 
L 216.490107 133.790315 
L 217.213169 133.563222 
L 217.93623 135.227093 
L 218.659291 134.470855 
L 219.382353 133.33613 
L 220.105414 134.622251 
L 220.828475 134.017039 
L 221.551537 135.075698 
L 222.274598 132.504563 
L 223.720721 108.683076 
L 224.443782 109.741735 
L 225.166843 114.884003 
L 225.889905 122.597776 
L 226.612966 120.102339 
L 227.336028 121.841538 
L 228.059089 125.547029 
L 228.78215 120.933905 
L 229.505212 120.707181 
L 230.228273 119.04368 
L 230.951334 126.076543 
L 231.674396 127.589018 
L 233.120518 125.547398 
L 233.84358 129.630639 
L 234.566641 128.647677 
L 235.289702 124.790791 
L 236.735825 121.0853 
L 237.458886 113.447226 
L 238.181948 113.750016 
L 238.905009 108.607378 
L 239.62807 101.649843 
L 240.351132 91.289608 
L 241.074193 82.592875 
L 241.797255 88.18896 
L 243.243377 93.255531 
L 243.966439 91.894451 
L 244.6895 95.827035 
L 245.412561 90.987187 
L 246.135623 83.273415 
L 246.858684 78.660291 
L 247.581745 78.584593 
L 248.304807 80.248464 
L 249.027868 81.004702 
L 249.750929 86.449761 
L 250.473991 89.550409 
L 251.197052 95.373218 
L 251.920113 95.448916 
L 253.366236 113.522923 
L 254.089297 99.986342 
L 254.812359 90.835792 
L 255.53542 86.222668 
L 256.258481 83.273415 
L 256.981543 85.46643 
L 257.704604 82.290453 
L 258.427666 83.802929 
L 259.150727 78.811686 
L 259.873788 56.275581 
L 260.59685 38.806785 
L 261.319911 37.293941 
L 262.042972 40.01647 
L 262.766034 54.763105 
L 264.212156 42.966093 
L 265.658279 36.6134 
L 266.38134 37.747757 
L 267.104402 29.051023 
L 267.827463 26.10177 
L 268.550524 19.296 
L 269.996647 25.950744 
L 270.719708 30.941987 
L 271.44277 21.488646 
L 272.165831 21.186225 
L 272.888892 22.320951 
L 273.611954 26.177468 
L 274.335015 27.46285 
L 275.058077 27.840969 
L 275.781138 30.941618 
L 276.504199 30.034354 
L 277.227261 30.563499 
L 277.950322 31.395434 
L 278.673383 26.10177 
L 279.396445 30.336775 
L 280.119506 38.731088 
L 280.842567 45.537227 
L 282.28869 62.854997 
L 283.011751 59.603322 
L 283.734813 60.813007 
L 284.457874 59.300532 
L 285.180935 68.526779 
L 285.903997 61.871666 
L 286.627058 64.140748 
L 287.350119 72.307968 
L 288.796242 101.271725 
L 290.242365 112.464264 
L 290.965426 128.799073 
L 291.688488 134.924303 
L 292.411549 130.613969 
L 293.13461 138.327742 
L 293.857672 139.008282 
L 294.580733 113.598621 
L 295.303794 97.415208 
L 296.026856 106.262967 
L 296.749917 112.690988 
L 297.472978 100.666882 
L 298.19604 99.456828 
L 298.919101 94.768376 
L 299.642162 88.567079 
L 300.365224 85.4668 
L 301.088285 86.600787 
L 301.811346 96.280482 
L 302.534408 101.272094 
L 303.257469 104.523768 
L 304.703592 131.445905 
L 305.426653 131.143114 
L 306.149715 129.252889 
L 306.872776 127.740044 
L 307.595837 129.479613 
L 309.04196 135.907633 
L 310.488083 136.739569 
L 311.934205 137.268713 
L 312.657267 136.966292 
L 313.380328 134.697579 
L 314.103389 123.656435 
L 314.826451 118.589863 
L 315.549512 118.740889 
L 316.995635 120.253365 
L 317.718696 116.850295 
L 318.441757 118.287073 
L 319.164819 116.169755 
L 319.88788 116.623202 
L 320.610941 113.220502 
L 321.334003 115.262491 
L 322.057064 135.151395 
L 322.780126 158.594764 
L 323.503187 159.275305 
L 324.226248 155.115997 
L 324.94931 151.864323 
L 325.672371 150.502873 
L 327.118494 136.058659 
L 327.841555 132.95838 
L 328.564616 136.436778 
L 329.287678 140.671783 
L 330.010739 131.294509 
L 330.7338 129.479613 
L 331.456862 123.429711 
L 333.626046 148.23416 
L 334.349107 149.898031 
L 335.072168 146.494961 
L 335.79523 147.856041 
L 336.518291 148.9147 
L 337.241353 145.058183 
L 337.964414 144.075222 
L 338.687475 136.663502 
L 339.410537 138.40307 
L 340.133598 142.638075 
L 340.856659 131.748326 
L 341.579721 125.471331 
L 342.302782 120.329063 
L 343.025843 120.555786 
L 343.748905 121.614445 
L 344.471966 106.565389 
L 345.195027 96.356549 
L 345.918089 82.063361 
L 346.64115 88.793802 
L 347.364211 84.861588 
L 348.087273 80.248464 
L 348.087273 80.248464 
" clip-path="url(#pe44f477c3f)" style="fill: none; stroke: #ffff00; stroke-width: 1.5; stroke-linecap: square"/>
   </g>
   <g id="patch_15">
    <path d="M 7.2 273.312 
L 7.2 7.2 
" style="fill: none; stroke: #000000; stroke-width: 0.8; stroke-linejoin: miter; stroke-linecap: square"/>
   </g>
   <g id="patch_16">
    <path d="M 364.32 273.312 
L 364.32 7.2 
" style="fill: none; stroke: #000000; stroke-width: 0.8; stroke-linejoin: miter; stroke-linecap: square"/>
   </g>
   <g id="patch_17">
    <path d="M 7.2 273.312 
L 364.32 273.312 
" style="fill: none; stroke: #000000; stroke-width: 0.8; stroke-linejoin: miter; stroke-linecap: square"/>
   </g>
   <g id="patch_18">
    <path d="M 7.2 7.2 
L 364.32 7.2 
" style="fill: none; stroke: #000000; stroke-width: 0.8; stroke-linejoin: miter; stroke-linecap: square"/>
   </g>
  </g>
  <g id="axes_5">
   <g id="matplotlib.axis_6"/>
   <g id="line2d_5">
    <path d="M 23.432727 154.090836 
L 24.155789 174.511355 
L 24.87885 170.815727 
L 25.601911 151.958756 
L 26.324973 153.095819 
L 27.048034 151.532271 
L 27.771095 155.749121 
L 28.494157 162.57173 
L 29.217218 173.23213 
L 29.940279 189.862401 
L 30.663341 213.315281 
L 31.386402 214.689242 
L 32.109463 208.15084 
L 32.832525 204.692109 
L 33.555586 209.193167 
L 34.278647 200.712273 
L 35.72477 211.94132 
L 36.447832 211.893778 
L 37.170893 209.714388 
L 37.893954 219.000827 
L 38.617016 214.12071 
L 39.340077 195.974317 
L 40.063138 183.608322 
L 41.509261 172.331965 
L 42.955384 197.869499 
L 43.678445 192.894646 
L 44.401506 192.136642 
L 45.124568 192.089217 
L 45.847629 191.852319 
L 46.57069 202.512719 
L 47.293752 210.519818 
L 48.016813 213.362591 
L 48.739874 209.85655 
L 49.462936 207.013777 
L 50.185997 208.245691 
L 51.63212 206.824189 
L 52.355181 201.32823 
L 53.078243 194.316033 
L 53.801304 190.194034 
L 54.524365 187.114363 
L 55.247427 188.346278 
L 55.970488 187.161673 
L 56.693549 194.221297 
L 57.416611 192.326114 
L 58.139672 189.293753 
L 58.862733 194.410884 
L 59.585795 193.510603 
L 60.308856 191.04689 
L 61.754979 197.916809 
L 62.47804 195.974317 
L 63.201101 200.285903 
L 63.924163 207.155938 
L 64.647224 208.530015 
L 66.093347 214.594506 
L 66.816408 219.569359 
L 67.53947 225.776127 
L 68.262531 229.661227 
L 68.985592 226.581556 
L 69.708654 232.88306 
L 70.431715 235.678408 
L 71.154776 221.038171 
L 71.877838 209.85655 
L 72.600899 209.572226 
L 73.32396 213.694225 
L 74.047022 219.000827 
L 74.770083 225.586539 
L 75.493144 245.580747 
L 76.939267 228.287209 
L 77.662328 245.67554 
L 78.38539 239.658302 
L 79.108451 220.374788 
L 79.831512 215.257773 
L 80.554574 219.379771 
L 82.000696 210.330346 
L 82.723758 215.068301 
L 83.446819 211.751732 
L 84.169881 226.676292 
L 84.892942 233.025107 
L 85.616003 233.262004 
L 86.339065 223.549253 
L 87.062126 207.819206 
L 87.785187 199.717371 
L 88.508249 198.438031 
L 89.23131 201.565128 
L 89.954371 201.896762 
L 90.677433 203.223412 
L 91.400494 193.984399 
L 92.123555 197.111496 
L 92.846617 207.487572 
L 93.569678 213.646914 
L 94.292739 209.335329 
L 95.015801 210.28292 
L 95.738862 211.041039 
L 97.184985 225.254906 
L 97.908046 224.544212 
L 98.631108 227.007926 
L 99.354169 222.791192 
L 100.07723 217.200381 
L 100.800292 218.290018 
L 101.523353 217.816339 
L 102.246414 225.918289 
L 102.969476 224.828536 
L 103.692537 222.885928 
L 104.415598 223.0754 
L 105.13866 224.591638 
L 105.861721 222.933238 
L 106.584782 224.212463 
L 107.307844 225.254906 
L 108.030905 224.78111 
L 108.753966 221.227643 
L 109.477028 215.115611 
L 110.92315 213.552063 
L 111.646212 215.020991 
L 112.369273 209.903976 
L 113.092334 212.36769 
L 113.815396 213.410017 
L 114.538457 212.083366 
L 115.261519 213.599489 
L 115.98458 216.063202 
L 116.707641 223.454459 
L 117.430703 221.274954 
L 118.153764 222.317396 
L 118.876825 220.138006 
L 119.599887 219.664095 
L 120.322948 214.689357 
L 121.046009 216.868632 
L 121.769071 215.020991 
L 122.492132 214.926139 
L 123.215193 215.636948 
L 123.938255 212.557162 
L 124.661316 216.158054 
L 125.384377 214.54708 
L 126.107439 218.053121 
L 126.8305 217.958385 
L 127.553561 216.489688 
L 128.276623 214.594506 
L 128.999684 224.40205 
L 129.722745 225.633965 
L 130.445807 233.830651 
L 131.168868 217.721487 
L 131.89193 226.249923 
L 132.614991 227.481722 
L 133.338052 224.82842 
L 134.061114 220.753848 
L 134.784175 224.449418 
L 136.230298 235.062451 
L 136.953359 234.493977 
L 137.67642 233.072532 
L 138.399482 234.920347 
L 139.122543 235.678408 
L 139.845604 242.832709 
L 140.568666 251.597927 
L 141.291727 250.792498 
L 142.014788 242.548443 
L 142.73785 245.722908 
L 143.460911 241.316529 
L 144.183972 248.328726 
L 144.907034 251.834883 
L 146.353157 248.23399 
L 147.076218 248.518256 
L 147.799279 246.765178 
L 148.522341 249.039419 
L 149.245402 237.668326 
L 149.968463 241.979912 
L 150.691525 243.922462 
L 151.414586 246.196646 
L 152.137647 245.012157 
L 152.860709 242.074648 
L 153.58377 244.348832 
L 154.306831 244.017198 
L 155.029893 242.595811 
L 155.752954 245.296481 
L 156.476015 243.401241 
L 157.199077 247.902356 
L 157.922138 246.196704 
L 158.645199 245.391217 
L 159.368261 246.670442 
L 160.091322 249.560583 
L 160.814383 247.144295 
L 161.537445 249.418479 
L 162.260506 247.902299 
L 162.983568 246.859971 
L 163.706629 252.640254 
L 164.42969 252.213884 
L 165.152752 245.296481 
L 165.875813 244.017256 
L 166.598874 241.079689 
L 167.321936 245.012157 
L 168.044997 245.628115 
L 168.768058 245.343849 
L 169.49112 242.832709 
L 170.214181 244.490994 
L 170.937242 241.64822 
L 171.660304 242.832709 
L 172.383365 245.91238 
L 173.106426 252.49815 
L 173.829488 244.917421 
L 174.552549 248.755154 
L 175.27561 246.386176 
L 175.998672 247.286399 
L 176.721733 243.590771 
L 178.167856 247.239031 
L 179.613979 246.386176 
L 180.33704 246.859971 
L 181.060101 246.244072 
L 182.506224 247.475929 
L 183.229285 254.298596 
L 183.952347 232.977739 
L 184.675408 223.833461 
L 185.398469 222.127809 
L 186.121531 235.536304 
L 186.844592 243.069607 
L 187.567653 241.83775 
L 188.290715 239.279243 
L 189.736837 245.722851 
L 190.459899 248.470888 
L 191.18296 241.932486 
L 192.629083 249.276317 
L 193.352144 248.660418 
L 194.075206 246.48097 
L 194.798267 252.971946 
L 195.521328 261.216 
L 196.24439 259.747245 
L 196.967451 257.804695 
L 197.690512 257.094002 
L 198.413574 255.719983 
L 199.136635 259.51029 
L 200.582758 251.740089 
L 201.305819 252.213827 
L 202.02888 242.21681 
L 202.751942 240.132098 
L 203.475003 249.655377 
L 204.198064 247.002133 
L 205.644187 254.961864 
L 206.367248 254.961864 
L 207.09031 250.934602 
L 207.813371 238.568549 
L 208.536432 232.740899 
L 209.259494 238.900241 
L 209.982555 237.289324 
L 210.705617 228.950534 
L 211.428678 230.703555 
L 212.151739 229.234858 
L 213.597862 210.804141 
L 214.320923 215.778994 
L 215.043985 210.28292 
L 215.767046 196.590274 
L 216.490107 179.438898 
L 217.213169 179.202001 
L 217.93623 179.912694 
L 218.659291 187.398687 
L 219.382353 184.034692 
L 220.105414 175.174738 
L 220.828475 171.952905 
L 221.551537 180.481225 
L 222.274598 181.523553 
L 222.997659 180.197018 
L 223.720721 180.244328 
L 224.443782 183.323999 
L 225.166843 183.655748 
L 225.889905 186.593142 
L 226.612966 186.877465 
L 227.336028 193.463177 
L 228.059089 197.585176 
L 228.78215 193.415752 
L 229.505212 201.896762 
L 230.228273 208.293002 
L 230.951334 210.235494 
L 231.674396 205.687126 
L 232.397457 207.013777 
L 233.120518 204.597373 
L 233.84358 202.654881 
L 234.566641 200.380639 
L 235.289702 200.191167 
L 236.012764 199.101414 
L 236.735825 199.669946 
L 237.458886 197.774763 
L 238.181948 199.433048 
L 238.905009 196.68501 
L 239.62807 182.660616 
L 240.351132 187.067053 
L 241.074193 165.698827 
L 241.797255 151.248063 
L 242.520316 142.90933 
L 243.243377 138.455583 
L 243.966439 140.350649 
L 244.6895 139.734808 
L 245.412561 96.240352 
L 246.135623 76.246203 
L 246.858684 81.17363 
L 247.581745 90.0337 
L 248.304807 88.754359 
L 249.027868 83.163664 
L 249.750929 81.315792 
L 250.473991 95.624511 
L 251.197052 98.846228 
L 251.920113 98.940964 
L 252.643175 101.641691 
L 253.366236 113.249682 
L 254.089297 105.621527 
L 254.812359 112.870623 
L 256.981543 95.387497 
L 257.704604 100.883572 
L 258.427666 98.98839 
L 259.150727 92.355252 
L 259.873788 93.634477 
L 260.59685 95.671821 
L 261.319911 94.250434 
L 262.042972 89.038683 
L 263.489095 105.905735 
L 264.212156 106.190175 
L 264.935218 108.416875 
L 265.658279 108.653773 
L 266.38134 109.696215 
L 267.104402 109.696215 
L 267.827463 108.938096 
L 268.550524 107.895769 
L 269.273586 112.870623 
L 269.996647 115.050013 
L 270.719708 114.292009 
L 271.44277 115.713396 
L 272.888892 131.111752 
L 273.611954 129.026982 
L 274.335015 130.874854 
L 275.058077 133.575465 
L 275.781138 123.009801 
L 276.504199 115.713396 
L 277.227261 117.655888 
L 277.950322 114.907967 
L 278.673383 115.286911 
L 279.396445 120.451351 
L 280.119506 122.44127 
L 280.842567 119.787968 
L 281.565629 123.625759 
L 282.28869 125.189307 
L 283.011751 117.892786 
L 283.734813 114.102422 
L 284.457874 119.835394 
L 285.180935 128.174242 
L 285.903997 131.159062 
L 286.627058 132.059343 
L 287.350119 126.847592 
L 288.073181 118.271846 
L 288.796242 122.299108 
L 289.519304 123.199389 
L 290.242365 121.777887 
L 290.965426 121.541104 
L 291.688488 126.421106 
L 292.411549 135.139014 
L 293.13461 124.004818 
L 293.857672 120.30919 
L 294.580733 117.703314 
L 295.303794 107.279812 
L 296.026856 57.294381 
L 296.749917 41.659127 
L 297.472978 28.582324 
L 298.19604 31.614684 
L 298.919101 27.871746 
L 299.642162 22.849467 
L 300.365224 21.285918 
L 301.088285 22.896777 
L 301.811346 25.076283 
L 303.257469 20.196281 
L 303.98053 26.11861 
L 304.703592 25.076283 
L 305.426653 29.57734 
L 306.149715 28.487588 
L 306.872776 30.145872 
L 307.595837 29.340443 
L 308.318899 19.296 
L 309.04196 21.285918 
L 309.765021 30.998727 
L 310.488083 27.113627 
L 311.211144 25.834286 
L 311.934205 32.704322 
L 312.657267 41.753863 
L 313.380328 41.753979 
L 314.103389 41.516965 
L 314.826451 38.86378 
L 315.549512 39.384885 
L 316.272573 37.868763 
L 316.995635 37.821337 
L 318.441757 27.776894 
L 319.164819 28.582324 
L 319.88788 25.881712 
L 320.610941 22.565143 
L 321.334003 30.335344 
L 322.057064 31.046153 
L 322.780126 29.198281 
L 323.503187 28.866647 
L 324.226248 32.799173 
L 324.94931 19.438162 
L 325.672371 19.911957 
L 326.395432 24.981547 
L 327.118494 24.128692 
L 327.841555 28.440277 
L 328.564616 27.634848 
L 329.287678 28.298116 
L 330.010739 32.609586 
L 331.456862 33.936236 
L 332.179923 33.983662 
L 333.626046 49.382018 
L 334.349107 47.723733 
L 335.072168 48.860797 
L 335.79523 52.840633 
L 336.518291 53.314428 
L 337.241353 50.329609 
L 337.964414 45.117742 
L 338.687475 38.626882 
L 339.410537 38.9584 
L 340.133598 35.784109 
L 340.856659 34.410032 
L 341.579721 32.278068 
L 342.302782 31.377787 
L 343.025843 35.262887 
L 343.748905 29.908974 
L 344.471966 22.233509 
L 345.195027 23.038939 
L 345.918089 27.208363 
L 346.64115 25.976448 
L 347.364211 23.275836 
L 347.364211 23.275836 
" clip-path="url(#pe44f477c3f)" style="fill: none; stroke: #00ffff; stroke-width: 1.5; stroke-linecap: square"/>
   </g>
   <g id="patch_19">
    <path d="M 7.2 273.312 
L 7.2 7.2 
" style="fill: none; stroke: #000000; stroke-width: 0.8; stroke-linejoin: miter; stroke-linecap: square"/>
   </g>
   <g id="patch_20">
    <path d="M 364.32 273.312 
L 364.32 7.2 
" style="fill: none; stroke: #000000; stroke-width: 0.8; stroke-linejoin: miter; stroke-linecap: square"/>
   </g>
   <g id="patch_21">
    <path d="M 7.2 273.312 
L 364.32 273.312 
" style="fill: none; stroke: #000000; stroke-width: 0.8; stroke-linejoin: miter; stroke-linecap: square"/>
   </g>
   <g id="patch_22">
    <path d="M 7.2 7.2 
L 364.32 7.2 
" style="fill: none; stroke: #000000; stroke-width: 0.8; stroke-linejoin: miter; stroke-linecap: square"/>
   </g>
   <g id="legend_1">
    <g id="patch_23">
     <path d="M 14.2 29.878125 
L 109.542187 29.878125 
Q 111.542187 29.878125 111.542187 27.878125 
L 111.542187 14.2 
Q 111.542187 12.2 109.542187 12.2 
L 14.2 12.2 
Q 12.2 12.2 12.2 14.2 
L 12.2 27.878125 
Q 12.2 29.878125 14.2 29.878125 
z
" style="fill: #ffffff; opacity: 0.8; stroke: #cccccc; stroke-linejoin: miter"/>
    </g>
    <g id="line2d_6">
     <path d="M 16.2 20.298438 
L 26.2 20.298438 
L 36.2 20.298438 
" style="fill: none; stroke: #00ffff; stroke-width: 1.5; stroke-linecap: square"/>
    </g>
    <g id="text_1">
     <!-- AGARIND.NS -->
     <g transform="translate(44.2 23.798438) scale(0.1 -0.1)">
      <defs>
       <path id="DejaVuSans-41" d="M 2188 4044 
L 1331 1722 
L 3047 1722 
L 2188 4044 
z
M 1831 4666 
L 2547 4666 
L 4325 0 
L 3669 0 
L 3244 1197 
L 1141 1197 
L 716 0 
L 50 0 
L 1831 4666 
z
" transform="scale(0.015625)"/>
       <path id="DejaVuSans-47" d="M 3809 666 
L 3809 1919 
L 2778 1919 
L 2778 2438 
L 4434 2438 
L 4434 434 
Q 4069 175 3628 42 
Q 3188 -91 2688 -91 
Q 1594 -91 976 548 
Q 359 1188 359 2328 
Q 359 3472 976 4111 
Q 1594 4750 2688 4750 
Q 3144 4750 3555 4637 
Q 3966 4525 4313 4306 
L 4313 3634 
Q 3963 3931 3569 4081 
Q 3175 4231 2741 4231 
Q 1884 4231 1454 3753 
Q 1025 3275 1025 2328 
Q 1025 1384 1454 906 
Q 1884 428 2741 428 
Q 3075 428 3337 486 
Q 3600 544 3809 666 
z
" transform="scale(0.015625)"/>
       <path id="DejaVuSans-52" d="M 2841 2188 
Q 3044 2119 3236 1894 
Q 3428 1669 3622 1275 
L 4263 0 
L 3584 0 
L 2988 1197 
Q 2756 1666 2539 1819 
Q 2322 1972 1947 1972 
L 1259 1972 
L 1259 0 
L 628 0 
L 628 4666 
L 2053 4666 
Q 2853 4666 3247 4331 
Q 3641 3997 3641 3322 
Q 3641 2881 3436 2590 
Q 3231 2300 2841 2188 
z
M 1259 4147 
L 1259 2491 
L 2053 2491 
Q 2509 2491 2742 2702 
Q 2975 2913 2975 3322 
Q 2975 3731 2742 3939 
Q 2509 4147 2053 4147 
L 1259 4147 
z
" transform="scale(0.015625)"/>
       <path id="DejaVuSans-49" d="M 628 4666 
L 1259 4666 
L 1259 0 
L 628 0 
L 628 4666 
z
" transform="scale(0.015625)"/>
       <path id="DejaVuSans-4e" d="M 628 4666 
L 1478 4666 
L 3547 763 
L 3547 4666 
L 4159 4666 
L 4159 0 
L 3309 0 
L 1241 3903 
L 1241 0 
L 628 0 
L 628 4666 
z
" transform="scale(0.015625)"/>
       <path id="DejaVuSans-44" d="M 1259 4147 
L 1259 519 
L 2022 519 
Q 2988 519 3436 956 
Q 3884 1394 3884 2338 
Q 3884 3275 3436 3711 
Q 2988 4147 2022 4147 
L 1259 4147 
z
M 628 4666 
L 1925 4666 
Q 3281 4666 3915 4102 
Q 4550 3538 4550 2338 
Q 4550 1131 3912 565 
Q 3275 0 1925 0 
L 628 0 
L 628 4666 
z
" transform="scale(0.015625)"/>
       <path id="DejaVuSans-2e" d="M 684 794 
L 1344 794 
L 1344 0 
L 684 0 
L 684 794 
z
" transform="scale(0.015625)"/>
       <path id="DejaVuSans-53" d="M 3425 4513 
L 3425 3897 
Q 3066 4069 2747 4153 
Q 2428 4238 2131 4238 
Q 1616 4238 1336 4038 
Q 1056 3838 1056 3469 
Q 1056 3159 1242 3001 
Q 1428 2844 1947 2747 
L 2328 2669 
Q 3034 2534 3370 2195 
Q 3706 1856 3706 1288 
Q 3706 609 3251 259 
Q 2797 -91 1919 -91 
Q 1588 -91 1214 -16 
Q 841 59 441 206 
L 441 856 
Q 825 641 1194 531 
Q 1563 422 1919 422 
Q 2459 422 2753 634 
Q 3047 847 3047 1241 
Q 3047 1584 2836 1778 
Q 2625 1972 2144 2069 
L 1759 2144 
Q 1053 2284 737 2584 
Q 422 2884 422 3419 
Q 422 4038 858 4394 
Q 1294 4750 2059 4750 
Q 2388 4750 2728 4690 
Q 3069 4631 3425 4513 
z
" transform="scale(0.015625)"/>
      </defs>
      <use xlink:href="#DejaVuSans-41"/>
      <use xlink:href="#DejaVuSans-47" x="66.658203"/>
      <use xlink:href="#DejaVuSans-41" x="144.148438"/>
      <use xlink:href="#DejaVuSans-52" x="212.556641"/>
      <use xlink:href="#DejaVuSans-49" x="282.039062"/>
      <use xlink:href="#DejaVuSans-4e" x="311.53125"/>
      <use xlink:href="#DejaVuSans-44" x="386.335938"/>
      <use xlink:href="#DejaVuSans-2e" x="463.337891"/>
      <use xlink:href="#DejaVuSans-4e" x="495.125"/>
      <use xlink:href="#DejaVuSans-53" x="569.929688"/>
     </g>
    </g>
   </g>
  </g>
 </g>
 <defs>
  <clipPath id="pe44f477c3f">
   <rect x="7.2" y="7.2" width="357.12" height="266.112"/>
  </clipPath>
 </defs>
</svg>
